<mxfile host="Electron" agent="Mozilla/5.0 (Windows NT 10.0; Win64; x64) AppleWebKit/537.36 (KHTML, like Gecko) draw.io/26.2.2 Chrome/134.0.6998.178 Electron/35.1.2 Safari/537.36" version="26.2.2">
  <diagram name="PÃ¡gina-1" id="bnu6b1f5J6UlpUDh2QJL">
    <mxGraphModel dx="1471" dy="1059" grid="1" gridSize="10" guides="1" tooltips="1" connect="1" arrows="1" fold="1" page="1" pageScale="1" pageWidth="4400" pageHeight="4400" math="0" shadow="0">
      <root>
        <mxCell id="0" />
        <mxCell id="1" parent="0" />
        <mxCell id="hLcK92fjVQecx8IzGw6r-2" value="" style="rounded=0;whiteSpace=wrap;html=1;" vertex="1" parent="1">
          <mxGeometry x="310" y="50" width="790" height="710" as="geometry" />
        </mxCell>
        <mxCell id="hLcK92fjVQecx8IzGw6r-3" value="" style="whiteSpace=wrap;html=1;aspect=fixed;" vertex="1" parent="1">
          <mxGeometry x="330" y="70" width="110" height="110" as="geometry" />
        </mxCell>
        <mxCell id="hLcK92fjVQecx8IzGw6r-4" value="" style="endArrow=none;html=1;rounded=0;exitX=0;exitY=0;exitDx=0;exitDy=0;entryX=1;entryY=1;entryDx=0;entryDy=0;" edge="1" parent="1" source="hLcK92fjVQecx8IzGw6r-3" target="hLcK92fjVQecx8IzGw6r-3">
          <mxGeometry width="50" height="50" relative="1" as="geometry">
            <mxPoint x="500" y="410" as="sourcePoint" />
            <mxPoint x="550" y="360" as="targetPoint" />
          </mxGeometry>
        </mxCell>
        <mxCell id="hLcK92fjVQecx8IzGw6r-6" value="Texto" style="whiteSpace=wrap;html=1;aspect=fixed;" vertex="1" parent="1">
          <mxGeometry x="900" y="80" width="120" height="120" as="geometry" />
        </mxCell>
        <mxCell id="hLcK92fjVQecx8IzGw6r-7" value="" style="ellipse;whiteSpace=wrap;html=1;aspect=fixed;" vertex="1" parent="1">
          <mxGeometry x="900" y="220" width="30" height="30" as="geometry" />
        </mxCell>
        <mxCell id="hLcK92fjVQecx8IzGw6r-8" value="" style="ellipse;whiteSpace=wrap;html=1;aspect=fixed;" vertex="1" parent="1">
          <mxGeometry x="980" y="220" width="30" height="30" as="geometry" />
        </mxCell>
        <mxCell id="hLcK92fjVQecx8IzGw6r-10" value="" style="endArrow=none;html=1;rounded=0;exitX=1;exitY=0.283;exitDx=0;exitDy=0;exitPerimeter=0;" edge="1" parent="1" source="hLcK92fjVQecx8IzGw6r-2">
          <mxGeometry width="50" height="50" relative="1" as="geometry">
            <mxPoint x="714" y="250" as="sourcePoint" />
            <mxPoint x="300" y="250" as="targetPoint" />
          </mxGeometry>
        </mxCell>
        <mxCell id="hLcK92fjVQecx8IzGw6r-11" value="" style="endArrow=none;html=1;rounded=0;" edge="1" parent="1">
          <mxGeometry width="50" height="50" relative="1" as="geometry">
            <mxPoint x="1110" y="496" as="sourcePoint" />
            <mxPoint x="310" y="496.16999999999996" as="targetPoint" />
          </mxGeometry>
        </mxCell>
        <mxCell id="hLcK92fjVQecx8IzGw6r-16" value="Texto" style="rounded=0;whiteSpace=wrap;html=1;" vertex="1" parent="1">
          <mxGeometry x="850" y="270" width="120" height="40" as="geometry" />
        </mxCell>
        <mxCell id="hLcK92fjVQecx8IzGw6r-18" value="Texto" style="rounded=0;whiteSpace=wrap;html=1;" vertex="1" parent="1">
          <mxGeometry x="640" y="500" width="120" height="40" as="geometry" />
        </mxCell>
        <mxCell id="hLcK92fjVQecx8IzGw6r-24" value="Imagen" style="whiteSpace=wrap;html=1;aspect=fixed;" vertex="1" parent="1">
          <mxGeometry x="950" y="560" width="90" height="90" as="geometry" />
        </mxCell>
        <mxCell id="hLcK92fjVQecx8IzGw6r-29" value="Texto" style="rounded=0;whiteSpace=wrap;html=1;" vertex="1" parent="1">
          <mxGeometry x="720" y="330" width="360" height="120" as="geometry" />
        </mxCell>
        <mxCell id="hLcK92fjVQecx8IzGw6r-30" value="Texto" style="rounded=0;whiteSpace=wrap;html=1;" vertex="1" parent="1">
          <mxGeometry x="450" y="280" width="120" height="40" as="geometry" />
        </mxCell>
        <mxCell id="hLcK92fjVQecx8IzGw6r-31" value="Texto" style="rounded=0;whiteSpace=wrap;html=1;" vertex="1" parent="1">
          <mxGeometry x="320" y="340" width="360" height="120" as="geometry" />
        </mxCell>
        <mxCell id="hLcK92fjVQecx8IzGw6r-37" value="Imagen" style="whiteSpace=wrap;html=1;aspect=fixed;" vertex="1" parent="1">
          <mxGeometry x="950" y="660" width="90" height="90" as="geometry" />
        </mxCell>
        <mxCell id="hLcK92fjVQecx8IzGw6r-38" value="Imagen" style="whiteSpace=wrap;html=1;aspect=fixed;" vertex="1" parent="1">
          <mxGeometry x="760" y="560" width="90" height="90" as="geometry" />
        </mxCell>
        <mxCell id="hLcK92fjVQecx8IzGw6r-39" value="Imagen" style="whiteSpace=wrap;html=1;aspect=fixed;" vertex="1" parent="1">
          <mxGeometry x="760" y="660" width="90" height="90" as="geometry" />
        </mxCell>
        <mxCell id="hLcK92fjVQecx8IzGw6r-40" value="Imagen" style="whiteSpace=wrap;html=1;aspect=fixed;" vertex="1" parent="1">
          <mxGeometry x="395" y="560" width="90" height="90" as="geometry" />
        </mxCell>
        <mxCell id="hLcK92fjVQecx8IzGw6r-41" value="Imagen" style="whiteSpace=wrap;html=1;aspect=fixed;" vertex="1" parent="1">
          <mxGeometry x="570" y="560" width="90" height="90" as="geometry" />
        </mxCell>
        <mxCell id="hLcK92fjVQecx8IzGw6r-42" value="Imagen" style="whiteSpace=wrap;html=1;aspect=fixed;" vertex="1" parent="1">
          <mxGeometry x="570" y="660" width="90" height="90" as="geometry" />
        </mxCell>
        <mxCell id="hLcK92fjVQecx8IzGw6r-43" value="Imagen" style="whiteSpace=wrap;html=1;aspect=fixed;" vertex="1" parent="1">
          <mxGeometry x="395" y="660" width="90" height="90" as="geometry" />
        </mxCell>
      </root>
    </mxGraphModel>
  </diagram>
</mxfile>
